HIERARCHY
ROOT Hips
{
  OFFSET 0 0 0
  CHANNELS 6 Xposition Yposition Zposition Zrotation Xrotation Yrotation
  JOINT LeftUpLeg
  {
    OFFSET 4.06525 -3.90732 0.41711
    CHANNELS 3 Zrotation Xrotation Yrotation
    JOINT LeftLeg
    {
      OFFSET 0.00023 -18.4821 0.00367
      CHANNELS 3 Zrotation Xrotation Yrotation
      JOINT LeftFoot
      {
        OFFSET -0.00172 -15.2898 -0.02629
        CHANNELS 3 Zrotation Xrotation Yrotation
        JOINT LeftToeBase
        {
          OFFSET 0.36743 -3.19131 5.54287
          CHANNELS 3 Zrotation Xrotation Yrotation
          JOINT LeftToeBase2
          {
            OFFSET 0.08751 0.04849 1.36758
            CHANNELS 3 Zrotation Xrotation Yrotation
            JOINT LeftToeBase3
            {
              OFFSET 0.07484 0.06785 1.16707
            }
          }
        }
      }
    }
  }
  JOINT RightUpLeg
  {
    OFFSET -4.06526 -3.90731 0.41712
    CHANNELS 3 Zrotation Xrotation Yrotation
    JOINT RightLeg
    {
      OFFSET -0.00029 -18.4821 0.0044
      CHANNELS 3 Zrotation Xrotation Yrotation
      JOINT RightFoot
      {
        OFFSET 0.0016 -15.2898 -0.02569
        CHANNELS 3 Zrotation Xrotation Yrotation
        JOINT RightToeBase
        {
          OFFSET -0.3542 -3.19109 5.54386
          CHANNELS 3 Zrotation Xrotation Yrotation
          JOINT RightToeBase2
          {
            OFFSET -0.08424 0.04854 1.36778
            CHANNELS 3 Zrotation Xrotation Yrotation
            JOINT RightToeBase3
            {
              OFFSET -0.07205 0.0679 1.16725
            }
          }
        }
      }
    }
  }
  JOINT Spine
  {
    OFFSET 1e-005 4.46517 -0.10224
    CHANNELS 3 Zrotation Xrotation Yrotation
    JOINT Spine1
    {
      OFFSET 1e-005 4.46212 -0.1824
      CHANNELS 3 Zrotation Xrotation Yrotation
      JOINT Spine2
      {
        OFFSET 0 4.37937 -0.881
        CHANNELS 3 Zrotation Xrotation Yrotation
        JOINT Spine3
        {
          OFFSET 1e-005 4.68286 0.21414
          CHANNELS 3 Zrotation Xrotation Yrotation
          JOINT Neck
          {
            OFFSET 0 1.76964 0.82454
            CHANNELS 3 Zrotation Xrotation Yrotation
            JOINT Head
            {
              OFFSET 0 1.6961 0.93145
              CHANNELS 3 Zrotation Xrotation Yrotation
              JOINT Head_End
              {
                OFFSET 1e-005 7.8375 1.52603
              }
            }
          }
          JOINT LeftShoulder
          {
            OFFSET 1.19381 -0.75881 -0.02768
            CHANNELS 3 Zrotation Xrotation Yrotation
            JOINT LeftArm
            {
              OFFSET 5.18779 -2e-005 1e-005
              CHANNELS 3 Zrotation Xrotation Yrotation
              JOINT LeftForeArm
              {
                OFFSET 12.7364 -4e-005 2e-005
                CHANNELS 3 Zrotation Xrotation Yrotation
                JOINT LeftHand
                {
                  OFFSET 9.21452 -2e-005 1e-005
                  CHANNELS 3 Zrotation Xrotation Yrotation
                }
              }
            }
          }
          JOINT RightShoulder
          {
            OFFSET -1.19381 -0.75881 -0.02767
            CHANNELS 3 Zrotation Xrotation Yrotation
            JOINT RightArm
            {
              OFFSET -5.18779 1e-005 -1e-005
              CHANNELS 3 Zrotation Xrotation Yrotation
              JOINT RightForeArm
              {
                OFFSET -12.7364 3e-005 -2e-005
                CHANNELS 3 Zrotation Xrotation Yrotation
                JOINT RightHand
                {
                  OFFSET -9.21452 2e-005 -1e-005
                  CHANNELS 3 Zrotation Xrotation Yrotation
                }
              }
            }
          }
        }
      }
    }
  }
}
MOTION
Frames: 15
Frame Time: 	0.0166667
-0.606059 5.67495 -0.495352 12.0218 -40.429 10.0498 68.1311 -69.6724 59.3838  -78.5056 61.4348 55.5693  5.19285 21.0541 0.236731  -1.2921e-011 -1.85426e-012 -1.45909e-010  -0 0 -0   -91.0849 -71.2811 -82.5417  80.9524 76.8904 -58.2415  -5.20179 24.5985 -0.389547  -1.46258e-011 6.37383e-012 -2.72578e-010  -0 0 -0   -8.2608 42.7718 -0.915397  -0.687664 6.79062 0.0591915  -0.70531 6.78735 0.0778726  -0.723588 6.78382 0.103014  -7.41268e-013 1.46306e-013 6.00528e-013  -3.28528 -19.0273 0.0403864   -0.627229 -0.961312 -0.268811  -15.9395 7.40563 -69.0217  25.0708 21.7173 -50.4318  -12.5575 0.0124063 -4.05328  1.08796 -1.07192 0.459652  35.2729 5.96695 69.3129  -37.5812 31.8181 56.3061  6.30475 -0.577019 10.6128 
-0.608093 5.67026 -0.501799 12.0324 -40.4164 10.0684 68.0816 -69.7728 59.3653  -78.2966 61.5672 55.4372  5.06926 21.0738 0.279018  -1.2921e-011 -1.85426e-012 -1.45909e-010  -0 0 -0   -91.1215 -71.3039 -82.5893  80.7445 76.9413 -58.0595  -5.15722 24.6152 -0.406193  -1.46258e-011 6.37383e-012 -2.72578e-010  -0 0 -0   -8.26759 42.7882 -0.928931  -0.687664 6.79062 0.0591915  -0.70531 6.78735 0.0778726  -0.723588 6.78382 0.103014  -7.41268e-013 1.46306e-013 6.00528e-013  -3.28528 -19.0273 0.0403864   -0.617552 -0.954844 -0.244663  -15.9581 7.35716 -69.0242  25.2346 21.7625 -50.5912  -12.5989 0.0124075 -3.98124  1.07638 -1.06548 0.436422  35.1243 5.99113 69.3374  -37.7551 31.8451 56.4596  6.39307 -0.576881 10.6854 
-0.610042 5.66582 -0.507739 12.0431 -40.405 10.087 68.0333 -69.8677 59.3462  -78.0991 61.6915 55.3117  4.95305 21.0922 0.318836  -1.2921e-011 -1.85426e-012 -1.45909e-010  -0 0 -0   -91.1562 -71.3215 -82.6331  80.5594 76.9841 -57.8966  -5.11954 24.6315 -0.420306  -1.46258e-011 6.37383e-012 -2.72578e-010  -0 0 -0   -8.27378 42.8032 -0.942509  -0.687664 6.79062 0.0591915  -0.70531 6.78735 0.0778726  -0.7235 6.78382 0.10227  -7.41268e-013 1.46306e-013 6.00528e-013  -3.28528 -19.0273 0.0403864   -0.608194 -0.948563 -0.221068  -15.977 7.31061 -69.0261  25.3971 21.8072 -50.7484  -12.6394 0.0124084 -3.91005  1.06514 -1.05918 0.41371  34.9765 6.01631 69.3609  -37.9266 31.8716 56.6105  6.47824 -0.572722 10.7582 
-0.611903 5.66184 -0.512513 12.0547 -40.3956 10.1065 67.9868 -69.9519 59.3253  -77.9278 61.7996 55.2024  4.85171 21.108 0.353595  -1.2921e-011 -1.85426e-012 -1.45909e-010  -0 0 -0   -91.1884 -71.3244 -82.6693  80.4361 77.005 -57.7853  -5.10079 24.6476 -0.427427  -1.46258e-011 6.37383e-012 -2.72578e-010  -0 0 -0   -8.27915 42.815 -0.95672  -0.687664 6.79026 0.0591915  -0.705309 6.787 0.0778725  -0.723401 6.78348 0.10143  -7.41268e-013 1.46306e-013 6.00528e-013  -3.28528 -19.0273 0.0403864   -0.599588 -0.942621 -0.198586  -15.9959 7.26808 -69.0264  25.5563 21.8514 -50.9008  -12.6784 0.0124096 -3.8397  1.0547 -1.05321 0.391957  34.8304 6.04393 69.3823  -38.0922 31.8969 56.756  6.55776 -0.569104 10.832 
-0.613363 5.6586 -0.516069 12.0653 -40.3895 10.1238 67.9469 -70.0187 59.3057  -77.7942 61.8845 55.1169  4.77271 21.1204 0.380722  -1.2921e-011 -1.85426e-012 -1.45909e-010  -0 0 -0   -91.2124 -71.3202 -82.6938  80.359 77.0132 -57.7141  -5.09266 24.661 -0.430481  -1.46258e-011 6.37383e-012 -2.72578e-010  -0 0 -0   -8.28209 42.8232 -0.969937  -0.687663 6.78969 0.0591914  -0.705309 6.78644 0.0778724  -0.7233 6.78292 0.100587  -7.41268e-013 1.46306e-013 6.00528e-013  -3.28365 -19.0273 0.0453887   -0.591938 -0.937115 -0.177675  -16.0161 7.23083 -69.0251  25.7113 21.8961 -51.0461  -12.7148 0.0129655 -3.77361  1.04529 -1.04769 0.371756  34.6876 6.0739 69.401  -38.2516 31.9233 56.8946  6.63196 -0.565796 10.9046 
-0.613984 5.65665 -0.51787 12.0726 -40.3892 10.135 67.9203 -70.0561 59.2903  -77.7238 61.9317 55.0718  4.73102 21.1272 0.395062  -1.2921e-011 -1.85426e-012 -1.45909e-010  -0 0 -0   -91.2166 -71.3121 -82.6981  80.3315 77.0112 -57.6894  -5.08968 24.6682 -0.432578  -1.46258e-011 6.37383e-012 -2.72578e-010  -0 0 -0   -8.28049 42.8249 -0.980222  -0.687663 6.78903 0.0591913  -0.705168 6.78579 0.0778723  -0.723198 6.78229 0.0997334  -7.41268e-013 1.46306e-013 6.00528e-013  -3.28618 -19.022 0.0533635   -0.585767 -0.932367 -0.159193  -16.0393 7.20188 -69.0215  25.8607 21.9431 -51.1804  -12.7468 0.0135479 -3.71636  1.03748 -1.04293 0.354079  34.5505 6.10715 69.4155  -38.4037 31.954 57.0231  6.69967 -0.562874 10.9739 
-0.61413 5.65535 -0.518705 12.0728 -40.3913 10.1423 67.9031 -70.0758 59.279  -77.6905 61.9561 55.0502  4.71171 21.1314 0.401738  -1.2921e-011 -1.85426e-012 -1.45909e-010  -0 0 -0   -91.212 -71.3034 -82.693  80.3246 77.0098 -57.6839  -5.08863 24.6718 -0.433823  -1.46258e-011 6.37383e-012 -2.72578e-010  -0 0 -0   -8.27465 42.8239 -0.989067  -0.687507 6.78842 0.0591913  -0.705002 6.78518 0.0778722  -0.723094 6.78169 0.0988628  -7.41268e-013 1.46306e-013 6.00528e-013  -3.28949 -19.0151 0.0656102   -0.580561 -0.928177 -0.142493  -16.0639 7.1779 -69.0163  26.0042 21.9905 -51.3061  -12.7755 0.0141495 -3.66438  1.03071 -1.03875 0.338223  34.4174 6.14225 69.4273  -38.548 31.986 57.1431  6.76221 -0.559961 11.0398 
-0.613995 5.65428 -0.519157 12.0699 -40.3947 10.1463 67.8958 -70.084 59.2739  -77.6788 61.9653 55.0415  4.70663 21.1353 0.403802  -1.2921e-011 -1.85426e-012 -1.45909e-010  -0 0 -0   -91.2028 -71.3 -82.6823  80.3269 77.0083 -57.6864  -5.0891 24.6731 -0.434316  -1.46258e-011 6.37383e-012 -2.72578e-010  -0 0 -0   -8.26703 42.8213 -0.997073  -0.687227 6.78797 0.0583502  -0.704814 6.78475 0.0778722  -0.722988 6.78126 0.0979684  -7.41268e-013 1.46306e-013 6.00528e-013  -3.29347 -19.0076 0.0845829   -0.576016 -0.924301 -0.127283  -16.089 7.15625 -69.0109  26.1416 22.0372 -51.424  -12.8007 0.0147632 -3.6162  1.02468 -1.03489 0.323896  34.2864 6.17808 69.4382  -38.683 32.0168 57.2547  6.82065 -0.557172 11.1002 
-0.613661 5.65334 -0.51931 12.0654 -40.3998 10.1491 67.8937 -70.0864 59.2726  -77.6813 61.9669 55.0432  4.70754 21.1398 0.403977  -1.2921e-011 -1.85426e-012 -1.45909e-010  -0 0 -0   -91.1898 -71.2967 -82.6677  80.3375 77.0062 -57.6964  -5.09068 24.6735 -0.434159  -1.46258e-011 6.37383e-012 -2.72578e-010  -0 0 -0   -8.25855 42.8184 -1.00491  -0.686902 6.78782 0.0573381  -0.704605 6.78461 0.0778721  -0.722705 6.78113 0.0970432  -7.41268e-013 1.46306e-013 6.00528e-013  -3.29875 -18.9989 0.107262   -0.572028 -0.920814 -0.113371  -16.1142 7.13717 -69.0053  26.2714 22.0823 -51.5338  -12.8238 0.0153817 -3.57004  1.01925 -1.03142 0.310822  34.1599 6.2138 69.4484  -38.8106 32.0479 57.3587  6.87508 -0.555163 11.1582 
-0.613385 5.652 -0.519586 12.0591 -40.4066 10.1514 67.8905 -70.0875 59.2696  -77.6808 61.9709 55.0394  4.7115 21.1434 0.402603  -1.2921e-011 -1.85426e-012 -1.45909e-010  -0 0 -0   -91.1714 -71.2891 -82.6479  80.3584 77.0021 -57.716  -5.09299 24.6729 -0.433445  -1.46258e-011 6.37383e-012 -2.72578e-010  -0 0 -0   -8.24807 42.8142 -1.01353  -0.68655 6.7881 0.0562754  -0.704251 6.78489 0.0768069  -0.722395 6.78142 0.0960804  -7.41268e-013 1.46306e-013 6.00528e-013  -3.30607 -18.9885 0.131008   -0.568141 -0.917325 -0.100294  -16.1381 7.11992 -68.9993  26.3883 22.1229 -51.635  -12.847 0.0159979 -3.52117  1.01409 -1.02789 0.298412  34.0415 6.24777 69.4575  -38.9328 32.0807 57.4565  6.9262 -0.553815 11.2165 
-0.612836 5.65103 -0.519553 12.0516 -40.415 10.153 67.8831 -70.0878 59.2617  -77.6872 61.9711 55.0421  4.71802 21.145 0.400022  -1.2921e-011 -1.85426e-012 -1.45909e-010  -0 0 -0   -91.1476 -71.2792 -82.6215  80.3891 76.9952 -57.7449  -5.09564 24.6712 -0.432271  -1.46258e-011 6.37383e-012 -2.72578e-010  -0 0 -0   -8.23566 42.8087 -1.02254  -0.686171 6.78893 0.0551712  -0.703869 6.78573 0.0756512  -0.722058 6.78227 0.0950732  -7.41268e-013 1.46306e-013 6.00528e-013  -3.31489 -18.9767 0.157135   -0.565128 -0.914661 -0.088574  -16.1629 7.10547 -68.9933  26.4984 22.1632 -51.7288  -12.8675 0.0166045 -3.47692  1.00958 -1.02519 0.287301  33.9271 6.28176 69.4662  -39.0474 32.1135 57.5467  6.97275 -0.552575 11.2733 
-0.611712 5.65112 -0.518793 12.044 -40.4246 10.1545 67.8664 -70.0859 59.244  -77.7146 61.9626 55.0608  4.73471 21.1443 0.394314  -1.2921e-011 -1.85426e-012 -1.45909e-010  -0 0 -0   -91.1165 -71.2675 -82.587  80.4305 76.9851 -57.7822  -5.09825 24.6665 -0.430727  -1.46258e-011 6.37383e-012 -2.72578e-010  -0 0 -0   -8.22045 42.8005 -1.03161  -0.685772 6.79144 0.0540345  -0.703467 6.78824 0.0744607  -0.721698 6.78479 0.0940149  -7.41268e-013 1.46306e-013 6.00528e-013  -3.325 -18.964 0.18623   -0.563384 -0.913127 -0.0786175  -16.1913 7.09531 -68.986  26.6072 22.2075 -51.8162  -12.8824 0.017194 -3.44582  1.00605 -1.02368 0.278056  33.8124 6.31744 69.4754  -39.151 32.144 57.6277  7.01359 -0.55144 11.3279 
-0.610173 5.65194 -0.517667 12.0367 -40.4354 10.1568 67.846 -70.0823 59.2201  -77.752 61.9508 55.0876  4.75631 21.1393 0.38685  -1.2921e-011 -1.85426e-012 -1.45909e-010  -0 0 -0   -91.0789 -71.2538 -82.5452  80.4768 76.9729 -57.8226  -5.10043 24.6596 -0.428911  -1.46258e-011 6.37383e-012 -2.72578e-010  -0 0 -0   -8.20311 42.7908 -1.04136  -0.685352 6.79436 0.052874  -0.703048 6.79118 0.0732466  -0.721313 6.78774 0.0928983  -7.41268e-013 1.46306e-013 6.00528e-013  -3.33602 -18.9501 0.217826   -0.562077 -0.91178 -0.070269  -16.2206 7.08877 -68.9774  26.711 22.2526 -51.8965  -12.8942 0.0177594 -3.41962  1.00428 -1.02236 0.270287  33.702 6.35346 69.4848  -39.2483 32.176 57.7018  7.04946 -0.550407 11.3802 
-0.608103 5.65362 -0.516478 12.0303 -40.4473 10.1607 67.8207 -70.0769 59.1917  -77.7936 61.9397 55.1192  4.7796 21.1309 0.378713  -1.2921e-011 -1.85426e-012 -1.45909e-010  -0 0 -0   -91.0322 -71.2419 -82.4948  80.5075 76.9641 -57.8482  -5.10238 24.6495 -0.426916  -1.46258e-011 6.37383e-012 -2.72578e-010  -0 0 -0   -8.18338 42.7805 -1.05192  -0.684914 6.79751 0.0516987  -0.702614 6.79434 0.0720203  -0.720882 6.79091 0.0915391  -7.41268e-013 1.46306e-013 6.00528e-013  -3.34714 -18.9347 0.251198   -0.561159 -0.910612 -0.0638058  -16.2489 7.08586 -68.968  26.8075 22.2969 -51.9691  -12.9045 0.0182935 -3.39218  1.00273 -1.02123 0.263891  33.5999 6.38904 69.4944  -39.3443 32.2136 57.7714  7.08013 -0.549474 11.4299 
-0.606019 5.65542 -0.514994 12.025 -40.4601 10.167 67.7947 -70.0705 59.163  -77.8374 61.9287 55.153  4.80318 21.1216 0.370459  -1.2921e-011 -1.85426e-012 -1.45909e-010  -0 0 -0   -90.9847 -71.2213 -82.441  80.5661 76.9448 -57.8963  -5.11307 24.6403 -0.422911  -1.46258e-011 6.37383e-012 -2.72578e-010  -0 0 -0   -8.16306 42.769 -1.06453  -0.684461 6.80101 0.0505176  -0.702168 6.79785 0.0707934  -0.720434 6.79444 0.0901602  -7.41268e-013 1.46306e-013 6.00528e-013  -3.35943 -18.9184 0.287698   -0.560563 -0.909613 -0.0584183  -16.277 7.0851 -68.9583  26.8973 22.3401 -52.0346  -12.914 0.018789 -3.36569  1.0014 -1.02028 0.258537  33.5026 6.42426 69.5045  -39.4357 32.2531 57.8353  7.10734 -0.548638 11.4767 
